<svg width="32" height="32" viewBox="0 0 32 32" fill="none" xmlns="http://www.w3.org/2000/svg">
<path opacity="0.3" d="M18.6667 5.33337H8V26.6667H24V10.6667H18.6667V5.33337ZM21.3333 14.6667V20C21.3333 22.9467 18.9467 25.3334 16 25.3334C13.0533 25.3334 10.6667 22.9467 10.6667 20V12.6667C10.6667 11.7827 11.0179 10.9348 11.643 10.3097C12.2681 9.68456 13.1159 9.33337 14 9.33337C14.8841 9.33337 15.7319 9.68456 16.357 10.3097C16.9821 10.9348 17.3333 11.7827 17.3333 12.6667V20H14.6667V12.6667C14.6667 12.2934 14.3733 12 14 12C13.6267 12 13.3333 12.2934 13.3333 12.6667V20C13.3333 21.4667 14.5333 22.6667 16 22.6667C17.4667 22.6667 18.6667 21.4667 18.6667 20V14.6667H21.3333Z" fill="black"/>
<path d="M18.6667 20C18.6667 21.4667 17.4667 22.6667 16.0001 22.6667C14.5334 22.6667 13.3334 21.4667 13.3334 20V12.6667C13.3334 12.2934 13.6267 12 14.0001 12C14.3734 12 14.6667 12.2934 14.6667 12.6667V20H17.3334V12.6667C17.3334 11.7827 16.9822 10.9348 16.3571 10.3097C15.732 9.68456 14.8841 9.33337 14.0001 9.33337C13.116 9.33337 12.2682 9.68456 11.6431 10.3097C11.0179 10.9348 10.6667 11.7827 10.6667 12.6667V20C10.6667 22.9467 13.0534 25.3334 16.0001 25.3334C18.9467 25.3334 21.3334 22.9467 21.3334 20V14.6667H18.6667V20Z" fill="black"/>
<path d="M18.6666 2.66663H7.99992C6.53325 2.66663 5.33325 3.86663 5.33325 5.33329V26.6666C5.33325 28.1333 6.53325 29.3333 7.99992 29.3333H23.9999C25.4666 29.3333 26.6666 28.1333 26.6666 26.6666V10.6666L18.6666 2.66663ZM23.9999 26.6666H7.99992V5.33329H18.6666V10.6666H23.9999V26.6666Z" fill="black"/>
</svg>
