<?xml version="1.0" ?><svg id="Layer_1" style="enable-background:new 0 0 1024 1024;" version="1.1" viewBox="0 0 1024 1024" xml:space="preserve" xmlns="http://www.w3.org/2000/svg" xmlns:xlink="http://www.w3.org/1999/xlink"><g id="XMLID_3765_"><path d="M967,419.5H340.3V114.4h580.5c25.4,0,46.1,20.7,46.1,46.1V419.5z M400.3,359.5H907V174.4H400.3V359.5z" id="XMLID_17_"/><path d="M684,665H57V359h627V665z M117,605h507V419H117V605z" id="XMLID_14_"/><path d="M400.3,419.5H57v-259c0-25.4,20.7-46.1,46.1-46.1h297.2V419.5z M117,359.5h223.3V174.4H117V359.5z" id="XMLID_11_"/><path d="M920.9,909.6H340.3V604.5H967v259C967,888.9,946.3,909.6,920.9,909.6z M400.3,849.6H907V664.5H400.3V849.6z" id="XMLID_8_"/><path d="M400.3,909.6H103.1c-25.4,0-46.1-20.7-46.1-46.1v-259h343.3V909.6z M117,849.6h223.3V664.5H117V849.6z" id="XMLID_5_"/><path d="M967,665H624V359h343V665z M684,605h223V419H684V605z" id="XMLID_2_"/></g><g id="XMLID_1_"/><g id="XMLID_20_"/><g id="XMLID_21_"/><g id="XMLID_22_"/><g id="XMLID_23_"/></svg>