<?xml version="1.0" ?><!DOCTYPE svg  PUBLIC '-//W3C//DTD SVG 1.1//EN'  'http://www.w3.org/Graphics/SVG/1.1/DTD/svg11.dtd'><svg enable-background="new 0 0 100 100" id="Слой_1" version="1.1" viewBox="0 0 100 100" xml:space="preserve" xmlns="http://www.w3.org/2000/svg" xmlns:xlink="http://www.w3.org/1999/xlink"><rect height="10" width="10" x="17.5" y="45"/><rect height="10" width="10" x="32.5" y="45"/><rect height="10" width="10" x="32.5" y="30"/><rect height="10" width="10" x="17.5" y="30"/><rect height="10" width="10" x="32.5" y="15"/><rect height="10" width="10" x="17.5" y="15"/><path d="M52.5,20V10H55V5h-2.5h-45H5v5h2.5v85h85V25H95v-5h-2.5H52.5z M47.5,20v70h-35V10h35V20z M87.5,90h-35V25h35V90z"/><rect height="10" width="10" x="57.5" y="45"/><rect height="10" width="10" x="72.5" y="45"/><rect height="10" width="10" x="72.5" y="30"/><rect height="10" width="10" x="57.5" y="30"/><rect height="10" width="10" x="17.5" y="75"/><rect height="10" width="10" x="32.5" y="75"/><rect height="10" width="10" x="32.5" y="60"/><rect height="10" width="10" x="17.5" y="60"/><rect height="10" width="10" x="57.5" y="75"/><rect height="10" width="10" x="72.5" y="75"/><rect height="10" width="10" x="72.5" y="60"/><rect height="10" width="10" x="57.5" y="60"/></svg>