<svg width="32" height="33" viewBox="0 0 32 33" fill="none" xmlns="http://www.w3.org/2000/svg">
<path opacity="0.2" d="M27 6.5V11.5H5V6.5C5 6.23478 5.10536 5.98043 5.29289 5.79289C5.48043 5.60536 5.73478 5.5 6 5.5H26C26.2652 5.5 26.5196 5.60536 26.7071 5.79289C26.8946 5.98043 27 6.23478 27 6.5Z" fill="black"/>
<path d="M26 4.5H23V3.5C23 3.23478 22.8946 2.98043 22.7071 2.79289C22.5196 2.60536 22.2652 2.5 22 2.5C21.7348 2.5 21.4804 2.60536 21.2929 2.79289C21.1054 2.98043 21 3.23478 21 3.5V4.5H11V3.5C11 3.23478 10.8946 2.98043 10.7071 2.79289C10.5196 2.60536 10.2652 2.5 10 2.5C9.73478 2.5 9.48043 2.60536 9.29289 2.79289C9.10536 2.98043 9 3.23478 9 3.5V4.5H6C5.46957 4.5 4.96086 4.71071 4.58579 5.08579C4.21071 5.46086 4 5.96957 4 6.5V26.5C4 27.0304 4.21071 27.5391 4.58579 27.9142C4.96086 28.2893 5.46957 28.5 6 28.5H26C26.5304 28.5 27.0391 28.2893 27.4142 27.9142C27.7893 27.5391 28 27.0304 28 26.5V6.5C28 5.96957 27.7893 5.46086 27.4142 5.08579C27.0391 4.71071 26.5304 4.5 26 4.5ZM9 6.5V7.5C9 7.76522 9.10536 8.01957 9.29289 8.20711C9.48043 8.39464 9.73478 8.5 10 8.5C10.2652 8.5 10.5196 8.39464 10.7071 8.20711C10.8946 8.01957 11 7.76522 11 7.5V6.5H21V7.5C21 7.76522 21.1054 8.01957 21.2929 8.20711C21.4804 8.39464 21.7348 8.5 22 8.5C22.2652 8.5 22.5196 8.39464 22.7071 8.20711C22.8946 8.01957 23 7.76522 23 7.5V6.5H26V10.5H6V6.5H9ZM26 26.5H6V12.5H26V26.5ZM14 15.5V23.5C14 23.7652 13.8946 24.0196 13.7071 24.2071C13.5196 24.3946 13.2652 24.5 13 24.5C12.7348 24.5 12.4804 24.3946 12.2929 24.2071C12.1054 24.0196 12 23.7652 12 23.5V17.1175L11.4475 17.395C11.2101 17.5137 10.9353 17.5332 10.6836 17.4493C10.4318 17.3654 10.2237 17.1849 10.105 16.9475C9.98632 16.7101 9.96679 16.4353 10.0507 16.1836C10.1346 15.9318 10.3151 15.7237 10.5525 15.605L12.5525 14.605C12.705 14.5287 12.8745 14.4926 13.0449 14.5003C13.2153 14.5079 13.3808 14.559 13.5259 14.6487C13.671 14.7384 13.7907 14.8637 13.8736 15.0127C13.9566 15.1617 14.0001 15.3295 14 15.5ZM21.395 19.3062L19 22.5H21C21.2652 22.5 21.5196 22.6054 21.7071 22.7929C21.8946 22.9804 22 23.2348 22 23.5C22 23.7652 21.8946 24.0196 21.7071 24.2071C21.5196 24.3946 21.2652 24.5 21 24.5H17C16.8143 24.5 16.6322 24.4483 16.4743 24.3507C16.3163 24.253 16.1886 24.1133 16.1056 23.9472C16.0225 23.7811 15.9874 23.5952 16.004 23.4102C16.0207 23.2252 16.0886 23.0486 16.2 22.9L19.7975 18.1038C19.8793 17.9948 19.938 17.8703 19.97 17.7379C20.002 17.6054 20.0066 17.4678 19.9835 17.3336C19.9604 17.1993 19.9101 17.0712 19.8357 16.957C19.7612 16.8429 19.6643 16.7452 19.5508 16.6699C19.4372 16.5945 19.3095 16.5432 19.1754 16.519C19.0413 16.4949 18.9037 16.4983 18.771 16.5292C18.6383 16.5602 18.5134 16.6179 18.4038 16.6988C18.2942 16.7798 18.2023 16.8823 18.1338 17C18.07 17.1174 17.9834 17.2208 17.8791 17.3041C17.7748 17.3875 17.6548 17.4491 17.5263 17.4853C17.3977 17.5215 17.2633 17.5316 17.1308 17.5151C16.9983 17.4985 16.8704 17.4555 16.7548 17.3887C16.6391 17.3219 16.5381 17.2327 16.4575 17.1262C16.3769 17.0197 16.3185 16.8981 16.2857 16.7687C16.2528 16.6392 16.2462 16.5045 16.2663 16.3725C16.2864 16.2405 16.3327 16.1138 16.4025 16C16.7328 15.4284 17.2425 14.9817 17.8525 14.7291C18.4625 14.4766 19.1388 14.4323 19.7765 14.6032C20.4142 14.7741 20.9778 15.1506 21.3798 15.6743C21.7818 16.1981 21.9998 16.8398 22 17.5C22.0021 18.1522 21.7895 18.7869 21.395 19.3062Z" fill="black"/>
</svg>
