<svg width="32" height="32" viewBox="0 0 32 32" fill="none" xmlns="http://www.w3.org/2000/svg">
<path d="M22.6667 2.66663C21.9333 2.66663 21.3333 3.26663 21.3333 3.99996V5.33329H10.6667V3.99996C10.6667 3.26663 10.0667 2.66663 9.33333 2.66663C8.6 2.66663 8 3.26663 8 3.99996V5.33329H6.66667C5.18667 5.33329 4.01333 6.53329 4.01333 7.99996L4 26.6666C4 27.3739 4.28095 28.0521 4.78105 28.5522C5.28115 29.0523 5.95942 29.3333 6.66667 29.3333H25.3333C26.8 29.3333 28 28.1333 28 26.6666V7.99996C28 6.53329 26.8 5.33329 25.3333 5.33329H24V3.99996C24 3.26663 23.4 2.66663 22.6667 2.66663ZM25.3333 26.6666H6.66667V13.3333H25.3333V26.6666ZM14.6667 17.3333C14.6667 16.6 15.2667 16 16 16C16.7333 16 17.3333 16.6 17.3333 17.3333C17.3333 18.0666 16.7333 18.6666 16 18.6666C15.2667 18.6666 14.6667 18.0666 14.6667 17.3333ZM9.33333 17.3333C9.33333 16.6 9.93333 16 10.6667 16C11.4 16 12 16.6 12 17.3333C12 18.0666 11.4 18.6666 10.6667 18.6666C9.93333 18.6666 9.33333 18.0666 9.33333 17.3333ZM20 17.3333C20 16.6 20.6 16 21.3333 16C22.0667 16 22.6667 16.6 22.6667 17.3333C22.6667 18.0666 22.0667 18.6666 21.3333 18.6666C20.6 18.6666 20 18.0666 20 17.3333ZM14.6667 22.6666C14.6667 21.9333 15.2667 21.3333 16 21.3333C16.7333 21.3333 17.3333 21.9333 17.3333 22.6666C17.3333 23.4 16.7333 24 16 24C15.2667 24 14.6667 23.4 14.6667 22.6666ZM9.33333 22.6666C9.33333 21.9333 9.93333 21.3333 10.6667 21.3333C11.4 21.3333 12 21.9333 12 22.6666C12 23.4 11.4 24 10.6667 24C9.93333 24 9.33333 23.4 9.33333 22.6666ZM20 22.6666C20 21.9333 20.6 21.3333 21.3333 21.3333C22.0667 21.3333 22.6667 21.9333 22.6667 22.6666C22.6667 23.4 22.0667 24 21.3333 24C20.6 24 20 23.4 20 22.6666Z" fill="black"/>
</svg>
