<?xml version="1.0" ?><svg viewBox="0 0 32 32" xmlns="http://www.w3.org/2000/svg"><title/><g id="calendar"><path d="M27,5H24V4a1,1,0,0,0-2,0V5H17V4a1,1,0,0,0-2,0V5H10V4A1,1,0,0,0,8,4V5H5A3,3,0,0,0,2,8V26a3,3,0,0,0,3,3H24a6,6,0,0,0,6-6V8A3,3,0,0,0,27,5ZM25,26.86V23h3A4,4,0,0,1,25,26.86ZM28,21H24a1,1,0,0,0-1,1v5H5a1,1,0,0,1-1-1V12H28Zm0-11H4V8A1,1,0,0,1,5,7H8V8a1,1,0,0,0,2,0V7h5V8a1,1,0,0,0,2,0V7h5V8a1,1,0,0,0,2,0V7h3a1,1,0,0,1,1,1Z"/><path d="M15,16h2a1,1,0,0,0,0-2H15a1,1,0,0,0,0,2Z"/><path d="M22,16h2a1,1,0,0,0,0-2H22a1,1,0,0,0,0,2Z"/><path d="M8,16h2a1,1,0,0,0,0-2H8a1,1,0,0,0,0,2Z"/><path d="M8,20h2a1,1,0,0,0,0-2H8a1,1,0,0,0,0,2Z"/><path d="M15,20h2a1,1,0,0,0,0-2H15a1,1,0,0,0,0,2Z"/><path d="M22,20h2a1,1,0,0,0,0-2H22a1,1,0,0,0,0,2Z"/><path d="M15,24h2a1,1,0,0,0,0-2H15a1,1,0,0,0,0,2Z"/><path d="M8,24h2a1,1,0,0,0,0-2H8a1,1,0,0,0,0,2Z"/></g></svg>