<?xml version="1.0" ?><!DOCTYPE svg  PUBLIC '-//W3C//DTD SVG 1.1//EN'  'http://www.w3.org/Graphics/SVG/1.1/DTD/svg11.dtd'><svg height="16px" id="Layer_1" style="enable-background:new 0 0 16 16;" version="1.1" viewBox="0 0 16 16" width="16px" xml:space="preserve" xmlns="http://www.w3.org/2000/svg" xmlns:xlink="http://www.w3.org/1999/xlink"><g><path d="M13.5,1h-11C1.122,1,0,2.122,0,3.5v9C0,13.879,1.122,15,2.5,15h11c1.379,0,2.5-1.121,2.5-2.5v-9C16,2.122,14.879,1,13.5,1z    M15,12.5c0,0.827-0.673,1.5-1.5,1.5h-11C1.673,14,1,13.327,1,12.5v-9C1,2.673,1.673,2,2.5,2h11C14.327,2,15,2.673,15,3.5V12.5z"/><path d="M12.5,5h-6C6.224,5,6,5.224,6,5.5S6.224,6,6.5,6h6C12.776,6,13,5.776,13,5.5S12.776,5,12.5,5z"/><path d="M12.5,8h-6C6.224,8,6,8.224,6,8.5S6.224,9,6.5,9h6C12.776,9,13,8.776,13,8.5S12.776,8,12.5,8z"/><path d="M12.5,11h-6C6.224,11,6,11.224,6,11.5S6.224,12,6.5,12h6c0.276,0,0.5-0.224,0.5-0.5S12.776,11,12.5,11z"/><circle cx="4" cy="5" r="1"/><circle cx="4" cy="8" r="1"/><circle cx="4" cy="11" r="1"/></g></svg>