<svg width="32" height="32" viewBox="0 0 32 32" fill="none" xmlns="http://www.w3.org/2000/svg">
<path d="M25.903 12.586C25.8556 12.4775 25.7892 12.3783 25.707 12.293L19.707 6.293C19.6217 6.21078 19.5225 6.14441 19.414 6.097C19.384 6.083 19.352 6.075 19.32 6.064C19.2363 6.03553 19.1492 6.01837 19.061 6.013C19.04 6.011 19.021 6 19 6H12C10.897 6 10 6.897 10 8V24C10 25.103 10.897 26 12 26H24C25.103 26 26 25.103 26 24V13C26 12.979 25.989 12.96 25.987 12.938C25.9821 12.8497 25.9649 12.7625 25.936 12.679C25.926 12.647 25.917 12.616 25.903 12.586ZM22.586 12H20V9.414L22.586 12ZM12 24V16V8H18V13C18 13.2652 18.1054 13.5196 18.2929 13.7071C18.4804 13.8946 18.7348 14 19 14H24L24.002 24H12Z" fill="black"/>
<path d="M14 16H22V18H14V16ZM14 20H22V22H14V20ZM14 12H16V14H14V12Z" fill="black"/>
</svg>
