<svg width="32" height="33" viewBox="0 0 32 33" fill="none" xmlns="http://www.w3.org/2000/svg">
<path opacity="0.2" d="M25 5.5V28.5H7V5.5C7 5.23478 7.10536 4.98043 7.29289 4.79289C7.48043 4.60536 7.73478 4.5 8 4.5H24C24.2652 4.5 24.5196 4.60536 24.7071 4.79289C24.8946 4.98043 25 5.23478 25 5.5Z" fill="black"/>
<path d="M29 27.5H26V5.5C26 4.96957 25.7893 4.46086 25.4142 4.08579C25.0391 3.71071 24.5304 3.5 24 3.5H8C7.46957 3.5 6.96086 3.71071 6.58579 4.08579C6.21071 4.46086 6 4.96957 6 5.5V27.5H3C2.73478 27.5 2.48043 27.6054 2.29289 27.7929C2.10536 27.9804 2 28.2348 2 28.5C2 28.7652 2.10536 29.0196 2.29289 29.2071C2.48043 29.3946 2.73478 29.5 3 29.5H29C29.2652 29.5 29.5196 29.3946 29.7071 29.2071C29.8946 29.0196 30 28.7652 30 28.5C30 28.2348 29.8946 27.9804 29.7071 27.7929C29.5196 27.6054 29.2652 27.5 29 27.5ZM8 5.5H24V27.5H8V5.5ZM21 17C21 17.2967 20.912 17.5867 20.7472 17.8334C20.5824 18.08 20.3481 18.2723 20.074 18.3858C19.7999 18.4993 19.4983 18.5291 19.2074 18.4712C18.9164 18.4133 18.6491 18.2704 18.4393 18.0607C18.2296 17.8509 18.0867 17.5836 18.0288 17.2926C17.9709 17.0017 18.0007 16.7001 18.1142 16.426C18.2277 16.1519 18.42 15.9176 18.6666 15.7528C18.9133 15.588 19.2033 15.5 19.5 15.5C19.8978 15.5 20.2794 15.658 20.5607 15.9393C20.842 16.2206 21 16.6022 21 17Z" fill="black"/>
</svg>
