<svg width="32" height="33" viewBox="0 0 32 33" fill="none" xmlns="http://www.w3.org/2000/svg">
<path opacity="0.3" d="M9.46663 9.84666C7.65329 11.5933 6.66663 13.9667 6.66663 16.5C6.66663 21.6467 10.8533 25.8333 16 25.8333C18.4933 25.8333 20.84 24.86 22.6 23.1C23.469 22.235 24.158 21.2064 24.6271 20.0735C25.0963 18.9407 25.3363 17.7261 25.3333 16.5V7.16666H16C13.5466 7.16666 11.2266 8.11333 9.46663 9.84666ZM18.5066 9.99333C18.6933 10.18 18.72 10.4733 18.56 10.6867L15.3066 15.1267L20.7066 15.66C21.2933 15.7133 21.5466 16.4467 21.1066 16.8467L14.2266 23.02C14.0133 23.22 13.68 23.2067 13.48 23.0067C13.3896 22.9166 13.3345 22.7971 13.3248 22.6699C13.315 22.5427 13.3511 22.4162 13.4266 22.3133L16.68 17.8733L11.28 17.34C11.148 17.3276 11.0225 17.2773 10.9186 17.195C10.8147 17.1128 10.7369 17.0021 10.6946 16.8766C10.6522 16.751 10.6472 16.6159 10.6801 16.4875C10.713 16.3591 10.7824 16.2431 10.88 16.1533L17.76 9.98C17.9733 9.78 18.3066 9.79333 18.5066 9.99333Z" fill="black"/>
<path d="M16 4.5C9.6 4.5 4 9.64667 4 16.5C4 19.3267 4.98667 21.9267 6.62667 23.98L4 26.62L5.88 28.5L8.50667 25.8733C10.634 27.5739 13.2765 28.5001 16 28.5C19.0667 28.5 22.1467 27.3267 24.48 24.98C25.5976 23.869 26.484 22.5476 27.0882 21.0921C27.6924 19.6366 28.0023 18.0759 28 16.5V4.5H16ZM25.3333 16.5C25.3333 18.9933 24.36 21.34 22.6 23.1C21.735 23.969 20.7064 24.658 19.5735 25.1272C18.4407 25.5963 17.2261 25.8363 16 25.8333C10.8533 25.8333 6.66667 21.6467 6.66667 16.5C6.66667 13.9667 7.65333 11.5933 9.46667 9.84667C11.2045 8.1248 13.5536 7.16122 16 7.16667H25.3333V16.5Z" fill="black"/>
<path d="M11.2801 17.34L16.6801 17.8733L13.4267 22.3133C13.2801 22.5267 13.2934 22.82 13.4801 23.0067C13.6801 23.2067 14.0134 23.22 14.2267 23.02L21.1067 16.8467C21.5467 16.4467 21.3067 15.7133 20.7067 15.66L15.3067 15.1267L18.5601 10.6867C18.7067 10.4733 18.6934 10.18 18.5067 9.99333C18.4079 9.89535 18.2752 9.83927 18.1361 9.83679C17.997 9.8343 17.8623 9.8856 17.7601 9.98L10.8801 16.1533C10.4534 16.5533 10.6934 17.2867 11.2801 17.34Z" fill="black"/>
</svg>
