<?xml version="1.0" ?><!DOCTYPE svg  PUBLIC '-//W3C//DTD SVG 1.1//EN'  'http://www.w3.org/Graphics/SVG/1.1/DTD/svg11.dtd'><svg height="16px" id="Layer_1" style="enable-background:new 0 0 16 16;" version="1.1" viewBox="0 0 16 16" width="16px" xml:space="preserve" xmlns="http://www.w3.org/2000/svg" xmlns:xlink="http://www.w3.org/1999/xlink"><g><path d="M13,12c0,0.552-0.448,1-1,1H4c-0.551,0-1-0.448-1-1V4c0-0.551,0.449-1,1-1h5V2H4C2.897,2,2,2.897,2,4v8   c0,1.103,0.897,2,2,2h8c1.103,0,2-0.897,2-2V7h-1V12z"/><polygon points="10,0 12.293,2.293 6.293,8.293 7.707,9.707 13.707,3.707 16,6 16,0  "/></g></svg>