<?xml version="1.0" encoding="UTF-8"?>
<svg width="1200pt" height="1200pt" version="1.1" viewBox="0 0 1200 1200" xmlns="http://www.w3.org/2000/svg">
 <path d="m1198.2 840v-1.1992c0-0.60156 0-1.1992-0.60156-1.8008v-0.60156l-190.8-619.2c-1.1992-4.8008-6-7.8008-10.801-7.8008h-791.4c-4.8008 0-9 3-10.801 7.8008l-191.4 619.8v0.60156c0 0.60156 0 1.1992-0.60156 1.8008v1.1992 1.1992l12.602 114.6c0.60156 5.3984 5.3984 9.6016 10.801 9.6016h1149c5.3984 0 10.199-4.1992 10.801-9.6016l8.3984-74.398v-2.3984l4.1992-37.801c0.60156-1.2031 0.60156-1.2031 0.60156-1.8047zm-468 28.199 1.1992-16.801h210.6l-1.8008 16.801zm-465.6 0v-16.801h210.6v16.801zm-238.8-17.398h216.6v16.801h-214.8zm802.2-619.8 67.801 357.6h-180l-23.398-357.6zm-97.199 598.2-14.398-217.8h182.4l41.398 217.8zm-55.801-517.2h-146.4l4.8008-81h136.8zm-148.2 22.801h149.4l17.398 265.2 15 228.6h-210zm437.4 516h210.6l-1.8008 16.801h-210.6zm208.2-21.602h-209.4l-112.8-597.6h137.4zm-959.4-598.2h139.2l-17.398 94.199c-1.1992 6 3 12 9 13.199h1.8008c5.3984 0 10.199-3.6016 10.801-9l18-98.398h136.2l-34.801 597.6h-209.4l39.602-223.2c1.1992-1.8008 1.8008-3.6016 1.8008-5.3984v-1.8008l33-186.6c1.1992-6-3-12-9-12.602-6-1.1992-12 3-12.602 9l-32.398 181.8h-184.2zm-117.6 379.8h187.2l-38.398 217.8h-216zm-59.398 333-6-53.398h223.8l232.2-0.003906h169.8c6 0 10.801-4.8008 10.801-10.801s-4.8008-10.801-10.801-10.801l-158.4 0.003906v-16.801h211.2l-1.1992 16.801h-18.602c-6 0-10.801 4.8008-10.801 10.801s4.8008 10.801 10.801 10.801h481.2l-6 53.398z"/>
 <path d="m334.2 385.2h2.3984c5.3984 0 9.6016-3.6016 10.801-9l2.3984-11.398c1.1992-6-2.3984-12-8.3984-13.199-6-1.1992-12 2.3984-13.199 8.3984l-2.3984 12c-1.1992 6 2.3984 12 8.3984 13.199z"/>
 <path d="m426.6 630h0.60156c4.1992 0 7.8008-3 7.8008-7.1992l17.398-159c0.60156-4.1992-3-8.3984-7.1992-9-4.1992-0.60156-8.3984 3-9 7.1992l-17.398 159c-0.003907 4.8008 2.9961 9 7.7969 9z"/>
 <path d="m418.2 697.8h0.60156c4.1992 0 7.8008-3 7.8008-7.1992l3-30.602c0.60156-4.1992-3-8.3984-7.1992-9-4.1992-0.60156-8.3984 3-9 7.1992l-3 30.602c-0.003906 4.8008 2.9961 9 7.7969 9z"/>
 <path d="m907.8 275.4 36.602 159c0.60156 3.6016 4.1992 6 7.8008 6h1.8008c4.1992-1.1992 7.1992-5.3984 6-9.6016l-36.602-159c-1.1992-4.1992-5.3984-7.1992-9.6016-6-4.1992 1.2031-7.1992 5.4023-6 9.6016z"/>
</svg>
