<?xml version="1.0" encoding="UTF-8"?>
<svg width="1200pt" height="1200pt" version="1.1" viewBox="0 0 1200 1200" xmlns="http://www.w3.org/2000/svg">
 <path d="m1125 56.25h-1050c-10.312 0-18.75 8.4375-18.75 18.75v1050c0 10.312 8.4375 18.75 18.75 18.75s18.75-8.4375 18.75-18.75v-970.5l150 300v520.5c0 10.312 8.4375 18.75 18.75 18.75s18.75-8.4375 18.75-18.75v-506.25h637.5v506.25c0 10.312 8.4375 18.75 18.75 18.75s18.75-8.4375 18.75-18.75v-520.5l150-300v970.5c0 10.312 8.4375 18.75 18.75 18.75s18.75-8.4375 18.75-18.75v-1050c0-10.312-8.4375-18.75-18.75-18.75zm-199.12 375h-651.75l-168.75-337.5h989.25z"/>
 <path d="m1019.6 140.06c-3.375-5.4375-9.375-8.8125-15.938-8.8125h-807.38c-6.5625 0-12.562 3.375-15.938 8.8125s-3.75 12.375-0.75 18.188l112.5 225c3.1875 6.375 9.75 10.312 16.688 10.312h582.38c7.125 0 13.5-3.9375 16.688-10.312l112.5-225c3-5.8125 2.625-12.75-0.75-18.188zm-438.38 28.688v75h-317.06l-37.5-75zm-298.31 112.5h298.31v75h-260.81zm596.62 75h-260.81v-75h298.31zm56.25-112.5h-317.06v-75h354.56z"/>
</svg>
