<?xml version="1.0" encoding="UTF-8"?>
<svg width="1200pt" height="1200pt" version="1.1" viewBox="0 0 1200 1200" xmlns="http://www.w3.org/2000/svg">
 <path d="m949.5 918.75h-699.01c-16.703-0.023438-32.715-6.668-44.523-18.48-11.809-11.809-18.453-27.824-18.473-44.527v-361.48c0.019531-16.703 6.6641-32.719 18.473-44.527 11.809-11.812 27.82-18.457 44.523-18.48h699.01c16.703 0.023438 32.715 6.668 44.523 18.48 11.809 11.809 18.453 27.824 18.473 44.527v361.49-0.003906c-0.019531 16.703-6.6641 32.719-18.473 44.527-11.809 11.812-27.82 18.457-44.523 18.48zm-699.01-450c-6.7617 0.007812-13.242 2.6992-18.023 7.4805-4.7773 4.7812-7.4648 11.266-7.4727 18.027v361.49-0.003906c0.007812 6.7617 2.6953 13.246 7.4727 18.027 4.7812 4.7812 11.262 7.4727 18.023 7.4805h699.01c6.7617-0.007812 13.242-2.6992 18.023-7.4805 4.7773-4.7812 7.4648-11.266 7.4727-18.027v-361.48c-0.007812-6.7617-2.6953-13.246-7.4727-18.027-4.7812-4.7812-11.262-7.4727-18.023-7.4805z"/>
 <path d="m452.23 393.75c-4.5977-0.003906-9.0352-1.6992-12.465-4.7578-3.4336-3.0625-5.6172-7.2773-6.1445-11.844-0.52734-4.5703 0.64062-9.1719 3.2812-12.934 2.4883-3.5352 5.1445-6.8672 7.8008-10.18 9.3828-9.3203 14.664-21.992 14.668-35.215 0.003906-13.223-5.2656-25.902-14.641-35.227-14.695-15.961-22.855-36.867-22.859-58.562-0.003906-21.699 8.1484-42.605 22.844-58.57 5.7734-6.1992 10.176-13.539 12.926-21.551 1.3164-4.8242 4.5078-8.918 8.8594-11.379 4.3516-2.4609 9.5039-3.0781 14.316-1.7227 4.8125 1.3594 8.8828 4.5781 11.305 8.9531 2.4258 4.3711 3.0039 9.5273 1.6094 14.328-4.0078 12.867-10.734 24.727-19.719 34.773-9.4102 9.2656-14.688 21.93-14.641 35.137-0.125 13.227 5.1641 25.93 14.641 35.156 14.707 16 22.867 36.941 22.859 58.676s-8.1836 42.672-22.906 58.656c-2.168 2.7109-4.3477 5.4023-6.3711 8.293v0.003906c-3.5195 5-9.25 7.9727-15.363 7.9648z"/>
 <path d="m733.48 393.75c-4.5977-0.003906-9.0352-1.6992-12.465-4.7578-3.4336-3.0625-5.6172-7.2773-6.1445-11.844-0.52734-4.5703 0.64062-9.1719 3.2812-12.934 2.4883-3.5352 5.1445-6.8672 7.8008-10.18 9.3828-9.3203 14.664-21.992 14.668-35.215 0.003906-13.223-5.2656-25.902-14.641-35.227-14.695-15.961-22.855-36.867-22.859-58.562-0.003906-21.699 8.1484-42.605 22.844-58.57 5.7734-6.1992 10.176-13.539 12.926-21.551 1.3164-4.8242 4.5078-8.918 8.8594-11.379 4.3516-2.4609 9.5039-3.0781 14.316-1.7227 4.8125 1.3594 8.8828 4.5781 11.305 8.9531 2.4258 4.3711 3.0039 9.5273 1.6094 14.328-4.0078 12.867-10.734 24.727-19.719 34.773-9.4102 9.2656-14.688 21.93-14.641 35.137-0.125 13.227 5.1641 25.93 14.641 35.156 14.707 16 22.867 36.941 22.859 58.676s-8.1836 42.672-22.906 58.656c-2.168 2.7109-4.3477 5.4023-6.3711 8.293v0.003906c-3.5195 5-9.25 7.9727-15.363 7.9648z"/>
 <path d="m583.48 393.75c-4.5977-0.003906-9.0352-1.6992-12.465-4.7578-3.4336-3.0625-5.6172-7.2773-6.1445-11.844-0.52734-4.5703 0.64062-9.1719 3.2812-12.934 2.4883-3.5352 5.1445-6.8672 7.8008-10.18 9.3828-9.3203 14.664-21.992 14.668-35.215 0.003906-13.223-5.2656-25.902-14.641-35.227-14.695-15.961-22.855-36.867-22.859-58.562-0.003906-21.699 8.1484-42.605 22.844-58.57 5.7734-6.1992 10.176-13.539 12.926-21.551 1.3164-4.8242 4.5078-8.918 8.8594-11.379 4.3516-2.4609 9.5039-3.0781 14.316-1.7227 4.8125 1.3594 8.8828 4.5781 11.305 8.9531 2.4258 4.3711 3.0039 9.5273 1.6094 14.328-4.0078 12.867-10.734 24.727-19.719 34.773-9.4102 9.2656-14.688 21.93-14.641 35.137-0.125 13.227 5.1641 25.93 14.641 35.156 14.707 16 22.867 36.941 22.859 58.676s-8.1836 42.672-22.906 58.656c-2.168 2.7109-4.3477 5.4023-6.3711 8.293v0.003906c-3.5195 5-9.25 7.9727-15.363 7.9648z"/>
 <path d="m543.75 843.75c-4.9727 0-9.7422-1.9727-13.258-5.4922-3.5195-3.5156-5.4922-8.2852-5.4922-13.258v-262.5c0-6.6992 3.5742-12.887 9.375-16.238 5.8008-3.3477 12.949-3.3477 18.75 0 5.8008 3.3516 9.375 9.5391 9.375 16.238v262.5c0 4.9727-1.9727 9.7422-5.4922 13.258-3.5156 3.5195-8.2852 5.4922-13.258 5.4922z"/>
 <path d="m656.25 843.75c-4.9727 0-9.7422-1.9727-13.258-5.4922-3.5195-3.5156-5.4922-8.2852-5.4922-13.258v-262.5c0-6.6992 3.5742-12.887 9.375-16.238 5.8008-3.3477 12.949-3.3477 18.75 0 5.8008 3.3516 9.375 9.5391 9.375 16.238v262.5c0 4.9727-1.9727 9.7422-5.4922 13.258-3.5156 3.5195-8.2852 5.4922-13.258 5.4922z"/>
 <path d="m431.25 843.75c-4.9727 0-9.7422-1.9727-13.258-5.4922-3.5195-3.5156-5.4922-8.2852-5.4922-13.258v-262.5c0-6.6992 3.5742-12.887 9.375-16.238 5.8008-3.3477 12.949-3.3477 18.75 0 5.8008 3.3516 9.375 9.5391 9.375 16.238v262.5c0 4.9727-1.9727 9.7422-5.4922 13.258-3.5156 3.5195-8.2852 5.4922-13.258 5.4922z"/>
 <path d="m318.75 843.75c-4.9727 0-9.7422-1.9727-13.258-5.4922-3.5195-3.5156-5.4922-8.2852-5.4922-13.258v-262.5c0-6.6992 3.5742-12.887 9.375-16.238 5.8008-3.3477 12.949-3.3477 18.75 0 5.8008 3.3516 9.375 9.5391 9.375 16.238v262.5c0 4.9727-1.9727 9.7422-5.4922 13.258-3.5156 3.5195-8.2852 5.4922-13.258 5.4922z"/>
 <path d="m768.75 843.75c-4.9727 0-9.7422-1.9727-13.258-5.4922-3.5195-3.5156-5.4922-8.2852-5.4922-13.258v-262.5c0-6.6992 3.5742-12.887 9.375-16.238 5.8008-3.3477 12.949-3.3477 18.75 0 5.8008 3.3516 9.375 9.5391 9.375 16.238v262.5c0 4.9727-1.9727 9.7422-5.4922 13.258-3.5156 3.5195-8.2852 5.4922-13.258 5.4922z"/>
 <path d="m881.25 843.75c-4.9727 0-9.7422-1.9727-13.258-5.4922-3.5195-3.5156-5.4922-8.2852-5.4922-13.258v-262.5c0-6.6992 3.5742-12.887 9.375-16.238 5.8008-3.3477 12.949-3.3477 18.75 0 5.8008 3.3516 9.375 9.5391 9.375 16.238v262.5c0 4.9727-1.9727 9.7422-5.4922 13.258-3.5156 3.5195-8.2852 5.4922-13.258 5.4922z"/>
 <path d="m300 1012.5c-14.914-0.015625-29.211-5.9492-39.758-16.492-10.543-10.547-16.477-24.844-16.492-39.758v-56.25c0-4.9727 1.9727-9.7422 5.4922-13.258 3.5156-3.5195 8.2852-5.4922 13.258-5.4922h75c4.9727 0 9.7422 1.9727 13.258 5.4922 3.5195 3.5156 5.4922 8.2852 5.4922 13.258v56.25c-0.015625 14.914-5.9492 29.211-16.492 39.758-10.547 10.543-24.844 16.477-39.758 16.492zm-18.75-93.75v37.5c0 6.6992 3.5742 12.887 9.375 16.238 5.8008 3.3477 12.949 3.3477 18.75 0 5.8008-3.3516 9.375-9.5391 9.375-16.238v-37.5z"/>
 <path d="m900 1012.5c-14.914-0.015625-29.211-5.9492-39.758-16.492-10.543-10.547-16.477-24.844-16.492-39.758v-56.25c0-4.9727 1.9727-9.7422 5.4922-13.258 3.5156-3.5195 8.2852-5.4922 13.258-5.4922h75c4.9727 0 9.7422 1.9727 13.258 5.4922 3.5195 3.5156 5.4922 8.2852 5.4922 13.258v56.25c-0.015625 14.914-5.9492 29.211-16.492 39.758-10.547 10.543-24.844 16.477-39.758 16.492zm-18.75-93.75v37.5c0 6.6992 3.5742 12.887 9.375 16.238 5.8008 3.3477 12.949 3.3477 18.75 0 5.8008-3.3516 9.375-9.5391 9.375-16.238v-37.5z"/>
</svg>
