<?xml version="1.0" encoding="UTF-8" standalone="no"?>
<svg
   xml:space="preserve"
   version="1.1"
   style="shape-rendering:geometricPrecision;text-rendering:geometricPrecision;image-rendering:optimizeQuality;"
   viewBox="-85.35000000000001 -170.70000000000002 1877.7 2304.4500000000003"
   x="0px"
   y="0px"
   fill-rule="evenodd"
   clip-rule="evenodd"
   id="svg12"
   sodipodi:docname="noun-house-construction-6323046.svg"
   inkscape:version="1.3.2 (091e20e, 2023-11-25)"
   xmlns:inkscape="http://www.inkscape.org/namespaces/inkscape"
   xmlns:sodipodi="http://sodipodi.sourceforge.net/DTD/sodipodi-0.dtd"
   xmlns="http://www.w3.org/2000/svg"
   xmlns:svg="http://www.w3.org/2000/svg"><sodipodi:namedview
     id="namedview12"
     pagecolor="#ffffff"
     bordercolor="#000000"
     borderopacity="0.25"
     inkscape:showpageshadow="2"
     inkscape:pageopacity="0.0"
     inkscape:pagecheckerboard="0"
     inkscape:deskcolor="#d1d1d1"
     inkscape:zoom="0.10241056"
     inkscape:cx="937.40337"
     inkscape:cy="1152.225"
     inkscape:window-width="1312"
     inkscape:window-height="449"
     inkscape:window-x="0"
     inkscape:window-y="38"
     inkscape:window-maximized="0"
     inkscape:current-layer="svg12" /><defs
     id="defs1"><style
       type="text/css"
       id="style1">
   
    .fil0 {fill:black}
   
  </style></defs><g
     id="g11"><g
       id="g10"><g
         id="g9"><g
           id="g1"><path
             class="fil0"
             d="M1621 806c-6,0 -12,-1 -16,-5l-747 -629c-2,0 -6,0 -7,0l-748 629c-6,4 -11,5 -18,5 -7,0 -13,-4 -17,-8l-62 -74c-9,-9 -7,-25 2,-34l750 -630c54,-45 136,-45 191,0l749 630c10,8 11,23 3,34l-62 74c-5,5 -10,8 -17,8 0,0 0,0 -1,0zm-1563 -94l31 36 730 -613c18,-14 48,-14 66,0l731 614 31 -36 -728 -616c-37,-29 -93,-29 -129,0l-732 615z"
             id="path1" /></g><g
           id="g2"><path
             class="fil0"
             d="M268 1522c-14,0 -24,-11 -25,-24l-1 -868c0,-14 11,-25 23,-25 0,0 0,0 0,0 14,0 24,11 25,24l1 868c0,14 -11,25 -23,25 0,0 0,0 0,0zm1172 0c-14,0 -23,-11 -25,-24l-1 -869c0,-14 11,-25 23,-25 0,0 0,0 0,0 14,0 24,11 25,23l2 870c0,14 -11,25 -24,25 0,0 0,0 0,0z"
             id="path2" /></g><g
           id="g3"><path
             class="fil0"
             d="M1652 1690l-1598 0c-14,0 -25,-11 -25,-25l0 -167c0,-13 11,-25 25,-25l1598 0c14,0 25,12 25,25l0 167c0,14 -11,25 -25,25zm-1574 -49l1551 0 0 -118 -1551 0 0 118z"
             id="path3" /></g><g
           id="g7"><g
             id="g4"><path
               class="fil0"
               d="M1227 1127c-6,0 -13,-3 -17,-7l-56 -56c-4,-4 -7,-11 -7,-18 0,-7 3,-12 7,-18 6,-5 9,-11 9,-18 0,-7 -3,-15 -9,-21 -11,-11 -27,-11 -38,0 -10,10 -25,10 -35,0l-278 -277c-4,-4 -7,-11 -7,-18 0,-7 3,-13 9,-17l4 -4c-8,-21 -28,-60 -67,-78 -36,-16 -80,-11 -134,16 -11,5 -24,2 -31,-7 -7,-10 -5,-23 2,-31 63,-68 130,-100 198,-96 72,6 125,50 150,79 4,-2 10,-4 14,-4 0,0 0,0 0,0 7,0 12,3 16,7l278 279c10,10 10,25 0,35 -11,11 -11,28 0,39 10,9 28,9 39,0 9,-10 25,-10 34,0l56 55c10,10 10,25 0,35l-119 120c-6,2 -12,5 -18,5zm-24 -82l24 23 86 -86 -24 -23c-10,5 -22,8 -33,8 -21,0 -39,-8 -54,-22 -24,-24 -28,-58 -14,-88l-247 -248c-6,4 -11,7 -18,6 -7,0 -14,-4 -18,-10 0,-1 -54,-75 -132,-79 -22,-1 -46,3 -68,12 21,2 40,6 58,14 74,35 96,120 97,124 2,7 0,15 -4,21l246 245c27,-14 63,-10 87,14 15,15 24,35 22,55 0,12 -3,23 -8,34z"
               id="path4" /></g><g
             id="g5"><path
               class="fil0"
               d="M430 1422c-25,0 -48,-10 -66,-28 -38,-37 -38,-98 0,-134l510 -512c4,-4 11,-7 17,-7 0,0 0,0 0,0 7,0 12,3 16,7l102 101c9,10 9,25 0,35l-512 512c-18,16 -42,26 -67,26zm461 -623l-494 494c-18,18 -18,49 0,67 18,18 48,18 65,0l494 -494 -65 -67z"
               id="path5" /></g><g
             id="g6"><path
               class="fil0"
               d="M543 1339c-6,0 -13,-3 -17,-7l-101 -101c-10,-10 -10,-25 0,-35 9,-10 25,-10 34,0l102 101c9,10 9,25 0,35 -6,4 -11,7 -18,7z"
               id="path6" /></g></g><g
           id="g8"><path
             class="fil0"
             d="M415 404c-14,0 -25,-11 -25,-25l0 -337c0,-14 11,-25 25,-25l133 0c14,0 25,11 25,25l0 226c0,14 -11,25 -25,25 -14,0 -25,-11 -25,-25l0 -203 -83 0 0 315c0,13 -11,24 -25,24z"
             id="path7" /></g></g></g></g></svg>
