<svg width="32" height="33" viewBox="0 0 32 33" fill="none" xmlns="http://www.w3.org/2000/svg">
<path opacity="0.2" d="M27.5 16.5C27.5 18.7745 26.8255 20.9979 25.5619 22.8891C24.2983 24.7802 22.5022 26.2542 20.4009 27.1246C18.2995 27.995 15.9872 28.2228 13.7565 27.779C11.5257 27.3353 9.47658 26.24 7.86828 24.6317C6.25997 23.0234 5.1647 20.9743 4.72097 18.7435C4.27724 16.5128 4.50498 14.2005 5.37539 12.0991C6.2458 9.99779 7.71978 8.20174 9.61095 6.9381C11.5021 5.67446 13.7255 5 16 5C19.049 5.00331 21.9721 6.21597 24.1281 8.37193C26.284 10.5279 27.4967 13.451 27.5 16.5Z" fill="black"/>
<path d="M27.9712 19.2612C28.0026 19.3888 28.0085 19.5213 27.9887 19.6511C27.9689 19.781 27.9236 19.9056 27.8556 20.018C27.7876 20.1304 27.6981 20.2282 27.5922 20.306C27.4864 20.3838 27.3663 20.4399 27.2387 20.4712L24.1587 21.2212L24.9662 24.235C25.0002 24.3619 25.0089 24.4942 24.9918 24.6245C24.9746 24.7547 24.932 24.8803 24.8663 24.9941C24.8006 25.1078 24.7131 25.2076 24.6088 25.2875C24.5046 25.3674 24.3856 25.4261 24.2587 25.46C24.1745 25.4842 24.0875 25.4976 24 25.5C23.78 25.4998 23.5662 25.4271 23.3917 25.293C23.2173 25.159 23.0919 24.9712 23.035 24.7588L22.07 21.1587L17 18.2325V24.0863L19.7075 26.7925C19.8004 26.8854 19.8741 26.9957 19.9243 27.1171C19.9746 27.2385 20.0005 27.3686 20.0005 27.5C20.0005 27.6314 19.9746 27.7615 19.9243 27.8829C19.8741 28.0043 19.8004 28.1146 19.7075 28.2075C19.6145 28.3004 19.5042 28.3741 19.3828 28.4244C19.2615 28.4747 19.1313 28.5006 19 28.5006C18.8686 28.5006 18.7384 28.4747 18.6171 28.4244C18.4957 28.3741 18.3854 28.3004 18.2925 28.2075L16 25.9137L13.7075 28.2075C13.6145 28.3004 13.5042 28.3741 13.3828 28.4244C13.2615 28.4747 13.1313 28.5006 13 28.5006C12.8686 28.5006 12.7384 28.4747 12.6171 28.4244C12.4957 28.3741 12.3854 28.3004 12.2925 28.2075C12.1995 28.1146 12.1258 28.0043 12.0756 27.8829C12.0253 27.7615 11.9994 27.6314 11.9994 27.5C11.9994 27.3686 12.0253 27.2385 12.0756 27.1171C12.1258 26.9957 12.1995 26.8854 12.2925 26.7925L15 24.0863V18.2325L9.9312 21.1587L8.9662 24.7588C8.90923 24.9715 8.78364 25.1594 8.60893 25.2934C8.43422 25.4275 8.22015 25.5001 7.99995 25.5C7.91221 25.4998 7.82484 25.4884 7.73995 25.4662C7.61304 25.4323 7.49406 25.3737 7.38982 25.2937C7.28557 25.2138 7.19809 25.1141 7.13239 25.0003C7.06669 24.8866 7.02404 24.761 7.0069 24.6307C6.98975 24.5005 6.99843 24.3681 7.03245 24.2412L7.83995 21.2275L4.75995 20.4775C4.50236 20.4142 4.28047 20.2511 4.1431 20.0242C4.00573 19.7973 3.96413 19.5251 4.02745 19.2675C4.09077 19.0099 4.25383 18.788 4.48075 18.6506C4.70767 18.5133 4.97986 18.4717 5.23745 18.535L8.9187 19.4387L14 16.5L8.91995 13.5675L5.2387 14.4712C5.16057 14.4904 5.0804 14.5001 4.99995 14.5C4.75544 14.5002 4.51934 14.4107 4.33629 14.2486C4.15323 14.0865 4.03592 13.863 4.00652 13.6202C3.97712 13.3775 4.03767 13.1324 4.17673 12.9313C4.31579 12.7302 4.52372 12.587 4.7612 12.5287L7.8412 11.7787L7.0337 8.75875C6.96508 8.50248 7.00106 8.22945 7.13375 7.99972C7.26643 7.76999 7.48494 7.60237 7.7412 7.53375C7.99747 7.46512 8.2705 7.50111 8.50023 7.63379C8.72996 7.76648 8.89758 7.98498 8.9662 8.24125L9.9312 11.8412L15 14.7675V8.91375L12.2925 6.2075C12.1048 6.01986 11.9994 5.76536 11.9994 5.5C11.9994 5.3686 12.0253 5.2385 12.0756 5.1171C12.1258 4.99571 12.1995 4.88541 12.2925 4.7925C12.3854 4.69959 12.4957 4.62589 12.6171 4.57561C12.7384 4.52532 12.8686 4.49944 13 4.49944C13.2653 4.49944 13.5198 4.60486 13.7075 4.7925L16 7.08625L18.2925 4.7925C18.4801 4.60486 18.7346 4.49944 19 4.49944C19.2653 4.49944 19.5198 4.60486 19.7075 4.7925C19.8951 4.98014 20.0005 5.23464 20.0005 5.5C20.0005 5.76536 19.8951 6.01986 19.7075 6.2075L17 8.91375V14.7675L22.0687 11.8412L23.0337 8.24125C23.1023 7.98498 23.2699 7.76648 23.4997 7.63379C23.7294 7.50111 24.0024 7.46512 24.2587 7.53375C24.515 7.60237 24.7335 7.76999 24.8662 7.99972C24.9988 8.22945 25.0348 8.50248 24.9662 8.75875L24.1587 11.7725L27.2387 12.5225C27.4828 12.5746 27.6986 12.7162 27.8437 12.9193C27.9887 13.1224 28.0526 13.3725 28.0226 13.6203C27.9927 13.8681 27.8712 14.0958 27.682 14.2586C27.4927 14.4213 27.2495 14.5075 27 14.5C26.9195 14.5001 26.8393 14.4904 26.7612 14.4712L23.08 13.5675L18 16.5L23.08 19.4325L26.7612 18.5287C26.8887 18.4974 27.0212 18.4914 27.1511 18.5113C27.2809 18.5311 27.4056 18.5763 27.5179 18.6443C27.6303 18.7124 27.7282 18.8019 27.8059 18.9077C27.8837 19.0136 27.9399 19.1337 27.9712 19.2612Z" fill="black"/>
</svg>
