<?xml version="1.0" encoding="UTF-8"?>
<svg width="1200pt" height="1200pt" version="1.1" viewBox="0 0 1200 1200" xmlns="http://www.w3.org/2000/svg">
 <path d="m1092.5 581.9c-256.5-70.828-309.84-124.22-380.68-380.68-2.25-8.1562-9.6562-13.781-18.094-13.781s-15.844 5.625-18.094 13.781c-70.828 256.5-124.22 309.84-380.68 380.68-8.1562 2.25-13.734 9.6562-13.734 18.094s5.625 15.844 13.734 18.094c256.5 70.828 309.84 124.22 380.68 380.68 2.25 8.1562 9.6562 13.781 18.094 13.781s15.844-5.625 18.094-13.781c70.828-256.5 124.22-309.84 380.68-380.68 8.1562-2.25 13.734-9.6562 13.734-18.094s-5.625-15.844-13.734-18.094z"/>
 <path d="m281.9 492.47c2.25 8.1562 9.6562 13.781 18.094 13.781s15.844-5.625 18.094-13.781c32.812-118.78 55.641-141.61 174.42-174.42 8.1562-2.25 13.734-9.6562 13.734-18.094s-5.625-15.844-13.734-18.094c-118.78-32.812-141.61-55.594-174.42-174.42-2.25-8.1562-9.6562-13.781-18.094-13.781s-15.844 5.625-18.094 13.781c-32.812 118.78-55.641 141.61-174.42 174.42-8.1562 2.25-13.734 9.6562-13.734 18.094s5.625 15.844 13.734 18.094c118.78 32.812 141.61 55.594 174.42 174.42z"/>
 <path d="m520.64 910.03c-99.656-27.516-118.78-46.641-146.29-146.29-2.25-8.1562-9.6562-13.781-18.094-13.781s-15.844 5.625-18.094 13.781c-27.516 99.656-46.641 118.78-146.29 146.29-8.1562 2.25-13.734 9.6562-13.734 18.094s5.625 15.844 13.734 18.094c99.656 27.516 118.78 46.641 146.29 146.29 2.25 8.1562 9.6562 13.781 18.094 13.781s15.844-5.625 18.094-13.781c27.516-99.656 46.641-118.78 146.29-146.29 8.1562-2.25 13.734-9.6562 13.734-18.094s-5.625-15.844-13.734-18.094z"/>
</svg>
