<?xml version="1.0" ?><svg data-name="Line icon" id="Line_icon" viewBox="0 0 64 64" xmlns="http://www.w3.org/2000/svg"><path d="M2,47.321H62a1,1,0,0,0,.859-1.511L49.309,23.053a2.693,2.693,0,0,0-4.628,0L41.108,29.06,34.625,18.167a3.054,3.054,0,0,0-5.25,0L22.892,29.06l-3.574-6.007a2.693,2.693,0,0,0-4.628,0L1.141,45.81A1,1,0,0,0,2,47.321Zm23.064-18a4.167,4.167,0,0,0,2.5-1.15,2.205,2.205,0,0,1,3.237,0,4.153,4.153,0,0,0,5.786,0,2.337,2.337,0,0,1,1.265-.67L48.458,45.321H15.541Zm25.722,16L42.732,31.788a3.871,3.871,0,0,0,1.937.471A4.149,4.149,0,0,0,47.6,31.076a2.254,2.254,0,0,1,1.658-.723,2.315,2.315,0,0,1,1.679.728,5.419,5.419,0,0,0,1.344.864l7.965,13.376ZM46.4,24.077a.694.694,0,0,1,1.193,0L50.2,28.453a4.417,4.417,0,0,0-.944-.1,4.159,4.159,0,0,0-2.937,1.186,2.243,2.243,0,0,1-1.647.72,2.092,2.092,0,0,1-1.561-.649Zm-15.3-4.887a1.054,1.054,0,0,1,1.812,0L36.781,25.7a4.819,4.819,0,0,0-1.485.938,2.148,2.148,0,0,1-1.6.7,2.2,2.2,0,0,1-1.62-.709,4.109,4.109,0,0,0-2.9-1.17,3.8,3.8,0,0,0-2.2.641ZM16.408,24.077a.695.695,0,0,1,1.193,0L20.5,28.943a3.819,3.819,0,0,0-2.1-.576A4.1,4.1,0,0,0,15.5,29.536a2.213,2.213,0,0,1-1.624.709A1.836,1.836,0,0,1,12.883,30Zm-4.553,7.647a3.776,3.776,0,0,0,2.021.521,4.11,4.11,0,0,0,2.9-1.172,2.2,2.2,0,0,1,3.24.01,5.594,5.594,0,0,0,1.194.8l-8,13.438H3.759Z"/></svg>