<svg width="32" height="33" viewBox="0 0 32 33" fill="none" xmlns="http://www.w3.org/2000/svg">
<path opacity="0.2" d="M28.7074 11.7925L11.2924 29.2075C11.1049 29.3949 10.8506 29.5002 10.5855 29.5002C10.3204 29.5002 10.0662 29.3949 9.87867 29.2075L3.29242 22.625C3.10502 22.4375 2.99976 22.1832 2.99976 21.9181C2.99976 21.653 3.10502 21.3988 3.29242 21.2113L20.7074 3.79251C20.8949 3.60511 21.1492 3.49985 21.4143 3.49985C21.6794 3.49985 21.9337 3.60511 22.1212 3.79251L28.7074 10.375C28.8008 10.4679 28.8748 10.5784 28.9254 10.7C28.9759 10.8216 29.002 10.952 29.002 11.0838C29.002 11.2155 28.9759 11.3459 28.9254 11.4675C28.8748 11.5891 28.8008 11.6996 28.7074 11.7925Z" fill="black"/>
<path d="M29.415 9.67125L22.8287 3.08625C22.643 2.90049 22.4225 2.75313 22.1798 2.65259C21.9371 2.55205 21.677 2.50031 21.4143 2.50031C21.1517 2.50031 20.8916 2.55205 20.6489 2.65259C20.4062 2.75313 20.1857 2.90049 20 3.08625L2.58497 20.5C2.39921 20.6857 2.25185 20.9062 2.15131 21.1489C2.05077 21.3916 1.99902 21.6517 1.99902 21.9144C1.99902 22.1771 2.05077 22.4372 2.15131 22.6799C2.25185 22.9225 2.39921 23.143 2.58497 23.3288L9.17122 29.9138C9.35695 30.0995 9.57744 30.2469 9.82012 30.3474C10.0628 30.448 10.3229 30.4997 10.5856 30.4997C10.8483 30.4997 11.1084 30.448 11.3511 30.3474C11.5937 30.2469 11.8142 30.0995 12 29.9138L29.415 12.5C29.6007 12.3143 29.7481 12.0938 29.8486 11.8511C29.9492 11.6084 30.0009 11.3483 30.0009 11.0856C30.0009 10.8229 29.9492 10.5628 29.8486 10.3202C29.7481 10.0775 29.6007 9.85698 29.415 9.67125ZM10.585 28.5L3.99997 21.9138L7.99997 17.9138L11.2925 21.2075C11.3854 21.3004 11.4957 21.3741 11.6171 21.4244C11.7385 21.4747 11.8686 21.5006 12 21.5006C12.1314 21.5006 12.2615 21.4747 12.3829 21.4244C12.5043 21.3741 12.6146 21.3004 12.7075 21.2075C12.8004 21.1146 12.8741 21.0043 12.9244 20.8829C12.9746 20.7615 13.0005 20.6314 13.0005 20.5C13.0005 20.3686 12.9746 20.2385 12.9244 20.1171C12.8741 19.9957 12.8004 19.8854 12.7075 19.7925L9.41372 16.5L12 13.9138L15.2925 17.2075C15.4801 17.3951 15.7346 17.5006 16 17.5006C16.2653 17.5006 16.5198 17.3951 16.7075 17.2075C16.8951 17.0199 17.0005 16.7654 17.0005 16.5C17.0005 16.2346 16.8951 15.9801 16.7075 15.7925L13.4137 12.5L16 9.91375L19.2925 13.2075C19.3854 13.3004 19.4957 13.3741 19.6171 13.4244C19.7385 13.4747 19.8686 13.5006 20 13.5006C20.1314 13.5006 20.2615 13.4747 20.3829 13.4244C20.5043 13.3741 20.6146 13.3004 20.7075 13.2075C20.8004 13.1146 20.8741 13.0043 20.9244 12.8829C20.9746 12.7615 21.0005 12.6314 21.0005 12.5C21.0005 12.3686 20.9746 12.2385 20.9244 12.1171C20.8741 11.9957 20.8004 11.8854 20.7075 11.7925L17.4137 8.5L21.4137 4.5L28 11.0863L10.585 28.5Z" fill="black"/>
</svg>
