<svg width="32" height="33" viewBox="0 0 32 33" fill="none" xmlns="http://www.w3.org/2000/svg">
<path opacity="0.3" d="M25.3333 7.16667V25.8333H6.66663V7.16667H25.3333ZM24 8.50001H18.1066V12.94H14.6666V17.38H11.2266V21.8333H7.99996V24.5H13.8933V20.06H17.3333V15.62H20.7733V11.1667H24V8.50001Z" fill="black"/>
<path d="M25.3333 7.16667V25.8333H6.66667V7.16667H25.3333ZM25.3333 4.5H6.66667C5.2 4.5 4 5.7 4 7.16667V25.8333C4 27.3 5.2 28.5 6.66667 28.5H25.3333C26.8 28.5 28 27.3 28 25.8333V7.16667C28 5.7 26.8 4.5 25.3333 4.5ZM24 8.5H18.1067V12.94H14.6667V17.38H11.2267V21.8333H8V24.5H13.8933V20.06H17.3333V15.62H20.7733V11.1667H24V8.5Z" fill="black"/>
</svg>
