<svg width="32" height="33" viewBox="0 0 32 33" fill="none" xmlns="http://www.w3.org/2000/svg">
<path opacity="0.2" d="M19 17.75V6.5C19 5.43913 18.5786 4.42172 17.8284 3.67157C17.0783 2.92143 16.0609 2.5 15 2.5C13.9391 2.5 12.9217 2.92143 12.1716 3.67157C11.4214 4.42172 11 5.43913 11 6.5V17.75C9.77702 18.6016 8.85772 19.8212 8.37592 21.2315C7.89412 22.6417 7.87496 24.1689 8.32123 25.5908C8.7675 27.0126 9.6559 28.255 10.8571 29.137C12.0584 30.019 13.5097 30.4946 15 30.4946C16.4903 30.4946 17.9416 30.019 19.1429 29.137C20.3441 28.255 21.2325 27.0126 21.6788 25.5908C22.125 24.1689 22.1059 22.6417 21.6241 21.2315C21.1423 19.8212 20.223 18.6016 19 17.75ZM15 26.5C14.4067 26.5 13.8266 26.3241 13.3333 25.9944C12.8399 25.6648 12.4554 25.1962 12.2284 24.6481C12.0013 24.0999 11.9419 23.4967 12.0576 22.9147C12.1734 22.3328 12.4591 21.7982 12.8787 21.3787C13.2982 20.9591 13.8328 20.6734 14.4147 20.5576C14.9967 20.4419 15.5999 20.5013 16.1481 20.7284C16.6962 20.9554 17.1648 21.3399 17.4944 21.8333C17.8241 22.3266 18 22.9067 18 23.5C18 24.2956 17.6839 25.0587 17.1213 25.6213C16.5587 26.1839 15.7956 26.5 15 26.5Z" fill="black"/>
<path d="M16 19.625V6.5C16 6.23478 15.8946 5.98043 15.7071 5.79289C15.5196 5.60536 15.2652 5.5 15 5.5C14.7348 5.5 14.4804 5.60536 14.2929 5.79289C14.1054 5.98043 14 6.23478 14 6.5V19.625C13.0573 19.8684 12.2358 20.4472 11.6894 21.253C11.143 22.0588 10.9092 23.0362 11.0319 24.002C11.1546 24.9678 11.6253 25.8557 12.3558 26.4993C13.0863 27.1429 14.0264 27.498 15 27.498C15.9736 27.498 16.9137 27.1429 17.6442 26.4993C18.3747 25.8557 18.8454 24.9678 18.9681 24.002C19.0908 23.0362 18.857 22.0588 18.3106 21.253C17.7642 20.4472 16.9427 19.8684 16 19.625ZM15 25.5C14.6044 25.5 14.2178 25.3827 13.8889 25.1629C13.56 24.9432 13.3036 24.6308 13.1522 24.2654C13.0009 23.8999 12.9613 23.4978 13.0384 23.1098C13.1156 22.7219 13.3061 22.3655 13.5858 22.0858C13.8655 21.8061 14.2219 21.6156 14.6098 21.5384C14.9978 21.4613 15.3999 21.5009 15.7654 21.6522C16.1308 21.8036 16.4432 22.06 16.6629 22.3889C16.8827 22.7178 17 23.1044 17 23.5C17 24.0304 16.7893 24.5391 16.4142 24.9142C16.0391 25.2893 15.5304 25.5 15 25.5ZM20 17.25V6.5C20 5.17392 19.4732 3.90215 18.5355 2.96447C17.5979 2.02678 16.3261 1.5 15 1.5C13.6739 1.5 12.4021 2.02678 11.4645 2.96447C10.5268 3.90215 10 5.17392 10 6.5V17.25C8.70615 18.2859 7.76599 19.6981 7.30946 21.2915C6.85293 22.8848 6.90256 24.5806 7.45149 26.1445C8.00043 27.7084 9.02156 29.0633 10.3738 30.0217C11.726 30.9802 13.3425 31.495 15 31.495C16.6575 31.495 18.274 30.9802 19.6262 30.0217C20.9784 29.0633 21.9996 27.7084 22.5485 26.1445C23.0974 24.5806 23.1471 22.8848 22.6905 21.2915C22.234 19.6981 21.2939 18.2859 20 17.25ZM15 29.5C13.7224 29.5001 12.4782 29.0924 11.4484 28.3363C10.4186 27.5801 9.65707 26.5151 9.27464 25.2961C8.8922 24.0771 8.90885 22.7678 9.32215 21.559C9.73545 20.3501 10.5238 19.3047 11.5725 18.575C11.7052 18.4823 11.8134 18.3589 11.8879 18.2152C11.9624 18.0715 12.0008 17.9118 12 17.75V6.5C12 5.70435 12.3161 4.94129 12.8787 4.37868C13.4413 3.81607 14.2044 3.5 15 3.5C15.7956 3.5 16.5587 3.81607 17.1213 4.37868C17.6839 4.94129 18 5.70435 18 6.5V17.75C18 17.911 18.0388 18.0696 18.1133 18.2124C18.1877 18.3551 18.2955 18.4778 18.4275 18.57C19.4784 19.299 20.2688 20.3446 20.6835 21.5545C21.0982 22.7643 21.1155 24.075 20.7328 25.2953C20.3501 26.5157 19.5875 27.5818 18.5562 28.3382C17.5249 29.0946 16.2789 29.5016 15 29.5ZM22.1625 10.5962C22.0177 10.3741 21.967 10.1036 22.0216 9.84406C22.0762 9.58457 22.2317 9.35739 22.4538 9.2125C24.3288 7.98875 25.8125 8.61875 26.8925 9.08C27.875 9.5 28.47 9.75 29.4538 9.11125C29.676 8.96638 29.9468 8.91574 30.2064 8.97047C30.466 9.02521 30.6933 9.18084 30.8381 9.40312C30.983 9.62541 31.0336 9.89614 30.9789 10.1558C30.9242 10.4154 30.7685 10.6426 30.5462 10.7875C29.735 11.3163 29 11.5 28.3363 11.5C27.4613 11.5 26.7213 11.1825 26.1075 10.9213C25.125 10.5 24.53 10.25 23.5462 10.8888C23.4362 10.9604 23.3131 11.0097 23.184 11.0338C23.0549 11.0579 22.9223 11.0563 22.7938 11.0291C22.6653 11.002 22.5434 10.9497 22.4351 10.8755C22.3268 10.8012 22.2341 10.7063 22.1625 10.5962ZM30.8375 13.4038C30.9823 13.6259 31.033 13.8964 30.9784 14.1559C30.9238 14.4154 30.7683 14.6426 30.5462 14.7875C29.735 15.3163 29 15.5 28.3363 15.5C27.4613 15.5 26.7213 15.1825 26.1075 14.9213C25.1238 14.5013 24.53 14.2488 23.5462 14.89C23.4362 14.9617 23.3131 15.0111 23.1839 15.0352C23.0548 15.0594 22.9222 15.0579 22.7936 15.0308C22.6651 15.0037 22.5431 14.9515 22.4347 14.8773C22.3263 14.803 22.2336 14.7082 22.1619 14.5981C22.017 14.3758 21.9664 14.1051 22.0211 13.8455C22.0758 13.5859 22.2315 13.3586 22.4538 13.2137C24.3288 11.99 25.8125 12.62 26.8925 13.0813C27.8762 13.5013 28.47 13.755 29.4538 13.1125C29.6759 12.9677 29.9464 12.917 30.2059 12.9716C30.4654 13.0262 30.6926 13.1817 30.8375 13.4038Z" fill="black"/>
</svg>
