<?xml version="1.0" encoding="UTF-8"?>
<svg width="1200pt" height="1200pt" version="1.1" viewBox="0 0 1200 1200" xmlns="http://www.w3.org/2000/svg">
 <path d="m1038.1 468.61c9.75 0 17.625-7.9219 17.625-17.625v-149.02c0-9.75-7.9219-17.625-17.625-17.625l-876.28-0.046875c-9.75 0-17.625 7.9219-17.625 17.625v149.02c0 9.75 7.9219 17.625 17.625 17.625h128.39v113.72l-128.39 0.09375c-9.75 0-17.625 7.9219-17.625 17.625v149.02c0 9.75 7.9219 17.625 17.625 17.625h128.39v131.39c0 9.75 7.9219 17.625 17.625 17.625h584.21c9.75 0 17.625-7.9219 17.625-17.625v-131.39h128.39c9.75 0 17.625-7.9219 17.625-17.625v-149.02c0-9.75-7.9219-17.625-17.625-17.625h-128.39v-113.72h128.39zm-17.625-35.297h-256.82v-113.72h256.82zm-292.08 0h-223.5c-2.4844-6.9844-5.0156-13.688-7.5938-20.062-0.51562-1.2188-1.0312-2.3906-1.5-3.6094-0.75-1.7344-1.4531-3.5156-2.2031-5.2031-0.89062-2.0625-1.8281-4.0781-2.7656-6.0938-0.32812-0.75-0.70312-1.5-1.0312-2.25-1.1719-2.4844-2.3438-4.8281-3.5156-7.2188-0.09375-0.23438-0.23438-0.46875-0.32812-0.70312-4.5469-9-9.3281-17.25-14.344-24.844v-43.828h256.82v113.72zm0 236.02c-0.09375-0.09375-0.23438-0.1875-0.32812-0.28125-0.75-0.65625-1.4531-1.3125-2.2031-1.9688-1.0312-0.9375-2.1094-1.875-3.1406-2.7656-0.79688-0.65625-1.5469-1.2656-2.3438-1.9219-1.0312-0.84375-2.0156-1.6406-3.0469-2.4375-0.79688-0.60938-1.6406-1.2188-2.4375-1.8281-0.98438-0.75-1.9688-1.5-3-2.2031-0.84375-0.5625-1.6406-1.125-2.4844-1.7344-0.98438-0.70312-2.0156-1.3594-3-2.0156-0.84375-0.5625-1.6406-1.0781-2.4844-1.5938-0.98438-0.60938-2.0156-1.2656-3-1.875-0.84375-0.51562-1.6875-0.98438-2.4844-1.4531-1.0312-0.60938-2.0156-1.1719-3.0469-1.7344-0.79688-0.46875-1.6406-0.89062-2.4375-1.3125-1.0312-0.5625-2.1094-1.125-3.1406-1.6406-0.79688-0.42188-1.5938-0.79688-2.3906-1.2188-1.0781-0.51562-2.1562-1.0781-3.2344-1.5938-0.75-0.375-1.5-0.70312-2.2969-1.0781-1.125-0.51562-2.2969-1.0312-3.4219-1.5469-0.70312-0.32812-1.4062-0.60938-2.1094-0.9375-1.2188-0.51562-2.4844-1.0312-3.7031-1.5469-0.60938-0.23438-1.2188-0.51562-1.7812-0.75-1.4062-0.5625-2.7656-1.125-4.1719-1.6406-0.42188-0.1875-0.89062-0.375-1.3125-0.51562-1.7344-0.65625-3.4219-1.3125-5.1562-1.9688-0.09375-0.046875-0.1875-0.046875-0.28125-0.09375-5.6719-2.1094-11.344-4.125-16.969-6.0938s-11.203-3.9375-16.641-5.9531h102.05zm-146.06-87h-14.062l-0.46875-0.46875c-17.156-18.094-30.844-43.734-41.531-77.812-0.14062-0.51562-0.32812-0.98438-0.46875-1.5-1.4531-4.6406-2.8594-9.4219-4.1719-14.391-0.98438-3.7031-1.9688-7.3125-3-10.875-0.42188-1.4531-0.79688-2.8594-1.2188-4.3125s-0.84375-2.9531-1.2656-4.3594h66.141v113.72zm-146.06-262.78v4.5c-1.9219-1.5469-3.8906-3.0469-5.8594-4.5zm-110.77 560.81v-131.39c0-9.75-7.9219-17.625-17.625-17.625l-128.44 0.046876v-113.72h128.39c9.75 0 17.625-7.9219 17.625-17.625v-149.02c0-9.75-7.9219-17.625-17.625-17.625l-128.39-0.09375v-113.72h165.56c22.734 6.2344 40.734 13.406 55.641 22.547 0.42188 0.23437 0.79688 0.51562 1.2188 0.75 0.9375 0.60937 1.875 1.2188 2.7656 1.8281 28.594 19.266 49.734 49.969 69 106.36 0.375 1.0781 0.75 2.1562 1.125 3.2812 0.89062 2.7188 1.8281 5.4844 2.7188 8.2969 0.1875 0.5625 0.32812 1.0781 0.51562 1.5938 0.79688 2.4844 1.5469 5.0625 2.3438 7.5938 0.32812 1.0781 0.65625 2.1094 0.98438 3.1875 0.70312 2.3438 1.4062 4.7344 2.0625 7.1719 0.375 1.2656 0.70312 2.4844 1.0781 3.75 1.0312 3.6562 2.0625 7.4062 3.0938 11.297 0.9375 3.5625 1.9219 7.0312 2.9531 10.5 0.23438 0.84375 0.51562 1.6875 0.79688 2.5312 0.79688 2.5781 1.5938 5.1562 2.3906 7.6875 0.23438 0.75 0.51562 1.5 0.75 2.2969 0.89062 2.625 1.7344 5.2031 2.6719 7.7344 0.1875 0.46875 0.375 0.98438 0.51562 1.4531 1.0312 2.8594 2.1094 5.625 3.1875 8.3906 0.046875 0.09375 0.09375 0.23438 0.14062 0.32813 12.562 31.828 28.406 56.484 48 74.719l0.046875 0.046874c8.4844 7.9219 17.297 14.203 26.25 19.594 0.42188 0.28125 0.84375 0.51563 1.3125 0.79688 2.0156 1.1719 4.0312 2.3438 6.0469 3.4219 1.5469 0.84375 3.0469 1.6406 4.5938 2.3906 1.4062 0.70312 2.8125 1.4062 4.2188 2.0625 2.25 1.0781 4.5469 2.1094 6.8438 3.0938 0.98438 0.42187 2.0156 0.89062 3 1.3125 2.8125 1.1719 5.5781 2.2969 8.3906 3.375l1.4062 0.5625c6.8438 2.625 13.641 5.0156 20.344 7.3594 20.719 7.2656 40.594 14.203 59.016 27 6.1406 4.2656 12.094 9.1875 17.906 14.953 2.8594 2.8594 5.5781 5.9062 8.2031 8.9531 0.75 0.84375 1.4531 1.6875 2.1562 2.5781 2.4844 3.0469 4.9219 6.1406 7.2188 9.375 0.42188 0.60937 0.84375 1.2656 1.2656 1.875 1.7344 2.5312 3.4219 5.0625 5.0625 7.6875 1.9219 3.0469 3.75 6.1875 5.5781 9.4219 0.70312 1.2188 1.4062 2.4375 2.0625 3.6562 2.4375 4.5 4.7812 9.1406 6.9844 13.969 0 0.046876 0.046875 0.09375 0.046875 0.14063 21.234 46.359 28.547 97.453 30.984 123.84l-452.39 0.046875zm548.9 0h-61.078c-1.9219-23.672-7.6406-68.25-24.188-113.72h85.266zm146.06-149.02h-246.56c-3.1406-6.1875-6.5625-12.328-10.266-18.281v-95.438h256.82zm-146.06-149.02h-256.82v-113.72h256.82z"/>
</svg>
