<svg width="32" height="33" viewBox="0 0 32 33" fill="none" xmlns="http://www.w3.org/2000/svg">
<path opacity="0.3" d="M17.3333 19.1667C18.0697 19.1667 18.6667 18.5697 18.6667 17.8333C18.6667 17.097 18.0697 16.5 17.3333 16.5C16.597 16.5 16 17.097 16 17.8333C16 18.5697 16.597 19.1667 17.3333 19.1667Z" fill="black"/>
<path opacity="0.3" d="M4.37333 17.8333C4.17333 17.8333 4 18.0067 4 18.2067C4 18.3667 4.10667 18.5267 4.26667 18.5667L10.28 20.2867L13.3867 18.42C13.36 18.22 13.3467 18.0333 13.3467 17.8333H4.37333ZM23.68 5.21999C23.6092 5.17748 23.5263 5.15965 23.4442 5.16931C23.3622 5.17896 23.2857 5.21554 23.2267 5.27333L18.6667 9.53999V14.02L18.8133 14.06L23.8 5.73999C23.92 5.55333 23.8533 5.32666 23.68 5.21999ZM24.2533 21.14L20.5467 20.22C20.4533 20.3533 20.3467 20.4733 20.2267 20.5933L26.6933 27.06C26.9067 27.2733 27.16 27.1267 27.2267 27.06C27.3467 26.94 27.3733 26.7533 27.2933 26.62L24.2533 21.14Z" fill="black"/>
<path d="M5.33337 4.5H13.3334V7.16667H5.33337V4.5ZM1.33337 9.83333H8.00004V12.5H1.33337V9.83333ZM4.00004 25.8333H10.6667V28.5H4.00004V25.8333Z" fill="black"/>
<path d="M29.6134 25.3133L26.5734 19.8467C26.3936 19.5301 26.1524 19.2526 25.8639 19.0305C25.5754 18.8084 25.2454 18.6462 24.8934 18.5533L21.3067 17.66C21.2848 17.0382 21.1158 16.4304 20.8134 15.8867L26.0934 7.09999C26.96 5.65999 26.4934 3.79333 25.0534 2.92666C24.485 2.59084 23.823 2.44831 23.1668 2.52043C22.5105 2.59254 21.8953 2.87542 21.4134 3.32666L16.84 7.60666C16.3067 8.09999 16 8.80666 16 9.53999V14.0733C15.3734 14.3 14.8134 14.6733 14.36 15.1667H4.37337C3.64029 15.1658 2.93159 15.4299 2.37793 15.9104C1.82427 16.3909 1.46299 17.0553 1.36068 17.7812C1.25837 18.5072 1.42193 19.2456 1.82122 19.8604C2.22051 20.4752 2.82859 20.9249 3.53337 21.1267L9.5467 22.8467C9.7867 22.9133 10.04 22.9533 10.28 22.9533C10.76 22.9533 11.24 22.82 11.6534 22.5667L14.64 20.78C15.0267 21.1267 15.48 21.4067 16 21.5933V28.5C14.5334 28.5 13.3334 29.7 13.3334 31.1667H21.3334C21.3334 29.7 20.1334 28.5 18.6667 28.5V22.7933L24.8134 28.94C25.4134 29.54 26.1867 29.8333 26.96 29.8333C27.7334 29.8333 28.52 29.54 29.1067 28.94C30.0667 27.98 30.28 26.5 29.6134 25.3133ZM10.2934 20.2867L4.2667 18.5667C4.18929 18.5436 4.12145 18.496 4.07337 18.4311C4.02529 18.3662 3.99955 18.2874 4.00004 18.2067C4.00004 18.0067 4.17337 17.8333 4.37337 17.8333H13.3467C13.3467 18.0333 13.36 18.2333 13.3867 18.42L10.2934 20.2867ZM17.3334 19.1667C16.6 19.1667 16 18.5667 16 17.8333C16 17.1 16.6 16.5 17.3334 16.5C18.0667 16.5 18.6667 17.1 18.6667 17.8333C18.6667 18.5667 18.0667 19.1667 17.3334 19.1667ZM18.6667 14.02V9.53999L23.24 5.25999C23.3067 5.19333 23.4934 5.09999 23.6934 5.20666C23.8667 5.31333 23.9334 5.53999 23.8267 5.71333L18.84 14.0333L18.6667 14.02ZM27.2267 27.06C27.16 27.1267 26.9067 27.2733 26.6934 27.06L20.2267 20.5933C20.3334 20.4733 20.44 20.3533 20.5467 20.22L24.2534 21.14L27.2934 26.6067C27.3734 26.7533 27.3467 26.94 27.2267 27.06Z" fill="black"/>
</svg>
