<svg width="32" height="33" viewBox="0 0 32 33" fill="none" xmlns="http://www.w3.org/2000/svg">
<path opacity="0.2" d="M16 3.5C13.3478 3.5 10.8043 4.55357 8.92893 6.42893C7.05357 8.3043 6 10.8478 6 13.5C6 22.5 16 29.5 16 29.5C16 29.5 26 22.5 26 13.5C26 10.8478 24.9464 8.3043 23.0711 6.42893C21.1957 4.55357 18.6522 3.5 16 3.5ZM16 17.5C15.2089 17.5 14.4355 17.2654 13.7777 16.8259C13.1199 16.3864 12.6072 15.7616 12.3045 15.0307C12.0017 14.2998 11.9225 13.4956 12.0769 12.7196C12.2312 11.9437 12.6122 11.231 13.1716 10.6716C13.731 10.1122 14.4437 9.7312 15.2196 9.57686C15.9956 9.42252 16.7998 9.50173 17.5307 9.80448C18.2616 10.1072 18.8864 10.6199 19.3259 11.2777C19.7654 11.9355 20 12.7089 20 13.5C20 14.5609 19.5786 15.5783 18.8284 16.3284C18.0783 17.0786 17.0609 17.5 16 17.5Z" fill="black"/>
<path d="M16 8.5C15.0111 8.5 14.0444 8.79325 13.2221 9.34265C12.3999 9.89206 11.759 10.673 11.3806 11.5866C11.0022 12.5002 10.9031 13.5055 11.0961 14.4755C11.289 15.4454 11.7652 16.3363 12.4645 17.0355C13.1637 17.7348 14.0546 18.211 15.0245 18.4039C15.9945 18.5969 16.9998 18.4978 17.9134 18.1194C18.827 17.741 19.6079 17.1001 20.1573 16.2779C20.7068 15.4556 21 14.4889 21 13.5C21 12.1739 20.4732 10.9021 19.5355 9.96447C18.5979 9.02678 17.3261 8.5 16 8.5ZM16 16.5C15.4067 16.5 14.8266 16.3241 14.3333 15.9944C13.8399 15.6648 13.4554 15.1962 13.2284 14.6481C13.0013 14.0999 12.9419 13.4967 13.0576 12.9147C13.1734 12.3328 13.4591 11.7982 13.8787 11.3787C14.2982 10.9591 14.8328 10.6734 15.4147 10.5576C15.9967 10.4419 16.5999 10.5013 17.1481 10.7284C17.6962 10.9554 18.1648 11.3399 18.4944 11.8333C18.8241 12.3266 19 12.9067 19 13.5C19 14.2956 18.6839 15.0587 18.1213 15.6213C17.5587 16.1839 16.7956 16.5 16 16.5ZM16 2.5C13.0836 2.50331 10.2877 3.6633 8.22548 5.72548C6.1633 7.78766 5.00331 10.5836 5 13.5C5 17.425 6.81375 21.585 10.25 25.5312C11.794 27.3144 13.5318 28.9202 15.4312 30.3188C15.5994 30.4365 15.7997 30.4997 16.005 30.4997C16.2103 30.4997 16.4106 30.4365 16.5788 30.3188C18.4747 28.9196 20.2091 27.3139 21.75 25.5312C25.1812 21.585 27 17.425 27 13.5C26.9967 10.5836 25.8367 7.78766 23.7745 5.72548C21.7123 3.6633 18.9164 2.50331 16 2.5ZM16 28.25C13.9338 26.625 7 20.6562 7 13.5C7 11.1131 7.94821 8.82387 9.63604 7.13604C11.3239 5.44821 13.6131 4.5 16 4.5C18.3869 4.5 20.6761 5.44821 22.364 7.13604C24.0518 8.82387 25 11.1131 25 13.5C25 20.6537 18.0662 26.625 16 28.25Z" fill="black"/>
</svg>
