<svg width="32" height="32" viewBox="0 0 32 32" fill="none" xmlns="http://www.w3.org/2000/svg">
<path d="M6.66663 6.66662V25.3333C6.66663 25.6869 6.8071 26.0261 7.05715 26.2761C7.3072 26.5261 7.64634 26.6666 7.99996 26.6666H12V24H9.33329V7.99996H12V5.33329H7.99996C7.64634 5.33329 7.3072 5.47377 7.05715 5.72382C6.8071 5.97386 6.66663 6.313 6.66663 6.66662ZM25.656 5.37329L14.9893 2.70662C14.7928 2.65761 14.5877 2.65401 14.3896 2.69609C14.1915 2.73818 14.0056 2.82484 13.8459 2.9495C13.6863 3.07416 13.5572 3.23355 13.4684 3.41556C13.3795 3.59757 13.3333 3.79743 13.3333 3.99996V28C13.3328 28.2027 13.3787 28.4028 13.4673 28.5851C13.556 28.7673 13.6851 28.927 13.8449 29.0517C14.0047 29.1765 14.1908 29.2631 14.3891 29.305C14.5875 29.3468 14.7927 29.3428 14.9893 29.2933L25.656 26.6266C25.9445 26.5546 26.2008 26.3883 26.3839 26.1539C26.567 25.9196 26.6665 25.6307 26.6666 25.3333V6.66662C26.6665 6.36921 26.567 6.08036 26.3839 5.84601C26.2008 5.61166 25.9445 5.44527 25.656 5.37329ZM20 16.2506C19.9846 16.5939 19.8374 16.9181 19.5891 17.1556C19.3407 17.3931 19.0103 17.5256 18.6666 17.5256C18.323 17.5256 17.9926 17.3931 17.7442 17.1556C17.4958 16.9181 17.3486 16.5939 17.3333 16.2506V15.748C17.3335 15.3943 17.4741 15.0553 17.7243 14.8053C17.9745 14.5554 18.3137 14.4151 18.6673 14.4153C19.0209 14.4155 19.36 14.5561 19.6099 14.8063C19.8598 15.0565 20.0001 15.3957 20 15.7493V16.2506Z" fill="black"/>
</svg>
