<svg width="24" height="24" viewBox="0 0 24 24" fill="none" xmlns="http://www.w3.org/2000/svg">
<path d="M13.8683 16.6389C12.7292 16.6399 11.6118 16.3321 10.6383 15.749C9.66486 15.166 8.87286 14.3303 8.34902 13.3333H13.2742C13.6383 13.3333 13.9737 13.135 14.127 12.8139C14.4432 12.1906 13.9833 11.4444 13.2742 11.4444H7.71661C7.6687 11.1328 7.63995 10.8211 7.63995 10.5C7.63995 10.1789 7.6687 9.86722 7.71661 9.55556H13.2742C13.6383 9.55556 13.9737 9.35722 14.127 9.03611C14.2022 8.89253 14.2386 8.73224 14.2325 8.57075C14.2265 8.40927 14.1782 8.25206 14.0925 8.11434C14.0067 7.97661 13.8863 7.86304 13.743 7.78462C13.5996 7.70619 13.4382 7.66556 13.2742 7.66667H8.34902C8.87371 6.67038 9.66589 5.83524 10.6392 5.25234C11.6124 4.66943 12.7294 4.36115 13.8683 4.36111C15.0661 4.36111 16.1872 4.70111 17.1454 5.27722C17.6245 5.57 18.2473 5.52278 18.6498 5.12611C19.2055 4.57833 19.0809 3.68111 18.4102 3.275C17.0455 2.44312 15.4729 2.00168 13.8683 2C10.1121 2 6.93088 4.37056 5.7427 7.66667H2.9639C2.59978 7.66667 2.26441 7.865 2.10151 8.18611C1.7853 8.81889 2.24524 9.55556 2.9639 9.55556H5.30192C5.22468 10.1829 5.22468 10.8171 5.30192 11.4444H2.9639C2.59978 11.4444 2.26441 11.6428 2.11109 11.9639C1.7853 12.5967 2.24524 13.3333 2.9639 13.3333H5.7427C6.93088 16.6294 10.1121 19 13.8683 19C15.5356 19 17.0879 18.5372 18.4102 17.725C19.0714 17.3189 19.1959 16.4122 18.6402 15.8644C18.2377 15.4678 17.6149 15.4206 17.1358 15.7228C16.1872 16.3083 15.0756 16.6389 13.8683 16.6389Z" fill="black"/>
</svg>
